<svg xmlns="http://www.w3.org/2000/svg" viewBox="0 0 651 223.25"><defs>
<style>.cls-1,.cls-3,.cls-4{fill:#fff;}.cls-2,.cls-3,.cls-4{isolation:isolate;}.cls-3,.cls-4{font-size:33.55px;font-family:Helvetica, Helvetica;}.cls-4{letter-spacing:-0.04em;}</style>
</defs><title>Asset 1</title><g id="Layer_2" data-name="Layer 2"><g id="Layer_1-2" data-name="Layer 1"><g id="Layer_2-2" data-name="Layer 2"><g id="Layer_2-2-2" data-name="Layer 2-2"><path class="cls-1" d="M95.88,10.55l-85.74,51V160L95.71,207.9l85.73-46.41V59.76ZM0,55.21,95.71,0l96,55.21V166.66L95.88,223.25,0,166.29Z"/><polygon class="cls-1" points="18.35 129.34 23.58 130.49 37.01 123.48 44.87 125.97 49.95 113.77 63.38 105.94 71.59 88.68 82.59 104.22 94.82 70.76 116.83 110.17 127.03 109.17 139.86 113.94 144.06 119.97 152.95 108.65 166.84 124.23 168.15 127.48 173.12 127.48 173.12 64.73 94.99 21.8 18.35 63.98 18.35 129.34"/><polygon class="cls-1" points="17.15 139.23 17.15 145.77 28.38 149.29 28.38 143.52 42.27 156.06 48.44 153.29 42.01 149.03 40.41 143.52 45.49 147.66 65.81 154.55 57.78 143.52 68.76 143.52 72.5 134.71 82.39 143.52 95.39 117.14 102.16 121.68 90.68 138.74 98.16 168.09 123.83 145.26 123.83 134.46 133.97 132.23 122.23 153.55 146.29 149.55 155.09 135.97 164.72 144.77 169.26 143.52 171.95 147.52 171.95 140.49 168.21 140 162.06 128.2 154.57 119.91 146.54 128.68 147.89 130.97 142 134.71 142.54 129.46 139.86 125.17 126.48 120.17 118.74 121.68 104.31 130.2 116.34 120.17 95.39 83.02 86.65 112.8 77.84 121.17 78.9 116.91 76.25 116.4 81.05 112.8 72.76 101.59 66.07 114.65 69.01 117.65 62.33 117.91 53.78 122.68 54.58 125.57 50.3 124.43 45.49 138.23 38.27 134.46 24.38 140 17.15 139.23"/><polygon class="cls-1" points="18.35 152.12 18.35 158.41 95.13 196.04 171.95 158.15 171.95 152.12 95.13 188.53 18.35 152.12"/><polygon class="cls-1" points="227.16 165.44 238.91 165.44 266.2 123.54 293.46 165.44 305.66 165.44 270.17 112.88 262.2 112.88 227.16 165.44"/><path class="cls-1" d="M305.66,112.88h10.43v40s-.65,3.77,5.55,4.89,35.49,0,35.49,0,4.2-.46,5.32-3.35,0-41.46,0-41.46h9.77v45.21s-.68,5.94-10.2,7.25-42.87,0-42.87,0a13.13,13.13,0,0,1-13.54-10Z"/><path class="cls-1" d="M437.63,112.88v8.2H395.48a5.32,5.32,0,0,0-6.52,3.74c0,.16-.08.33-.11.49v27.95s-.45,4.2,6.43,4.63h42.35v7.54l-45.23.6s-13.32-1.48-13.55-10.8v-30.6a12.4,12.4,0,0,1,11.09-11.75Z"/><polygon class="cls-1" points="443.61 112.88 443.61 120.85 470.9 120.85 470.9 166.03 481.33 166.03 481.33 121.08 508.39 121.08 508.39 112.88 443.61 112.88"/><path class="cls-1" d="M648.54,112.88v8H604a5.49,5.49,0,0,0-6.54,4.18,5.29,5.29,0,0,0-.11,1.54,6.2,6.2,0,0,0,5.72,6.65c.23,0,.47,0,.71,0h32.8s12-.23,14.43,8.57v13.29s.66,8.23-11.43,9.77H588.44v-7.4h48.12a6.07,6.07,0,0,0,4.66-3.31v-8.43s.89-2.86-4.86-4.23l-34.83.45s-13.09-1.77-13.09-8.88L587.78,122a12.31,12.31,0,0,1,10-9.12C606.41,111.11,648.54,112.88,648.54,112.88Z"/><path class="cls-1" d="M514.82,112.88h10.29v40s-.54,3.57,5.72,4.8,35.49,0,35.49,0,4.23-.46,5.31-3.34,0-41.47,0-41.47h9.78v45.3s-.66,5.94-10.2,7.25-42.87,0-42.87,0a13.12,13.12,0,0,1-13.52-10Z"/><g class="cls-2"><text class="cls-3" transform="translate(239.71 85.08)">C R O S S F I</text><text class="cls-4" transform="translate(444.83 85.08)"><tspan xml:space="preserve"> T</tspan></text></g></g></g></g></g></svg>